<?xml version="1.0" encoding="utf-8"?>
<!-- Generator: Adobe Illustrator 26.0.0, SVG Export Plug-In . SVG Version: 6.00 Build 0)  -->
<svg version="1.1" id="Слой_1" xmlns="http://www.w3.org/2000/svg" xmlns:xlink="http://www.w3.org/1999/xlink" x="0px" y="0px"
	 viewBox="0 0 100 100" style="enable-background:new 0 0 100 100;" xml:space="preserve">
<style type="text/css">
	.st0{fill:#FFFFFF;}
	.st1{fill:url(#SVGID_1_);}
</style>
<g>
	
		<image style="overflow:visible;opacity:0.1;enable-background:new    ;" width="360" height="360" xlink:href="F9CCF840.png"  transform="matrix(0.3722 0 0 0.3722 -17.4651 -16.9149)">
	</image>
	<g>
		<path class="st0" d="M89,94.4H10.1c-2.7,0-4.9-2.2-4.9-4.9V10.6c0-2.7,2.2-4.9,4.9-4.9H89c2.7,0,4.9,2.2,4.9,4.9v78.9
			C93.9,92.2,91.7,94.4,89,94.4z"/>
	</g>
</g>
<linearGradient id="SVGID_1_" gradientUnits="userSpaceOnUse" x1="25.9989" y1="71.601" x2="69.1242" y2="28.4758" gradientTransform="matrix(1 0 0 1 0 2)">
	<stop  offset="0" style="stop-color:#00633D"/>
	<stop  offset="0.5" style="stop-color:#038451"/>
	<stop  offset="1" style="stop-color:#8BBE23"/>
</linearGradient>
<path class="st1" d="M78.3,40.6H59V21.4c0-2.1-1.7-3.8-3.8-3.8H43.9c-2.1,0-3.8,1.7-3.8,3.8v19.2H20.8c-2.1,0-3.8,1.7-3.8,3.8v11.3
	c0,2.1,1.7,3.8,3.8,3.8h19.3v19.2c0,2.1,1.7,3.8,3.8,3.8h11.3c2.1,0,3.8-1.7,3.8-3.8V59.5h19.3c2.1,0,3.8-1.7,3.8-3.8V44.5
	C82.1,42.4,80.4,40.6,78.3,40.6z"/>
</svg>
