<?xml version="1.0" encoding="iso-8859-1"?>
<!-- Generator: Adobe Illustrator 18.0.0, SVG Export Plug-In . SVG Version: 6.00 Build 0)  -->
<!DOCTYPE svg PUBLIC "-//W3C//DTD SVG 1.1//EN" "http://www.w3.org/Graphics/SVG/1.1/DTD/svg11.dtd">
<svg version="1.1" id="Capa_1" xmlns="http://www.w3.org/2000/svg" xmlns:xlink="http://www.w3.org/1999/xlink" x="0px" y="0px"
	 viewBox="0 0 437.051 437.051" style="enable-background:new 0 0 437.051 437.051;" xml:space="preserve">
<g>
	<path d="M285.037,66.512c-11.514,0-22.73,1.295-33.52,3.733c-10.791-2.438-22.01-3.733-33.525-3.733
		c-11.322,0-22.355,1.258-32.98,3.618c-10.629-2.362-21.668-3.618-32.998-3.618C68.193,66.512,0,134.705,0,218.525
		c0,83.82,68.193,152.013,152.014,152.013c11.33,0,22.369-1.256,32.998-3.618c10.625,2.36,21.658,3.618,32.98,3.618
		c11.516,0,22.734-1.294,33.525-3.733c10.789,2.438,22.006,3.733,33.52,3.733c83.82,0,152.014-68.193,152.014-152.014
		C437.051,134.705,368.858,66.512,285.037,66.512z M152.014,330.539C90.25,330.539,40,280.29,40,218.525
		c0-61.764,50.25-112.013,112.014-112.013c61.766,0,112.014,50.249,112.014,112.013C264.027,280.29,213.779,330.539,152.014,330.539
		z M264.918,320.2c24.297-26.954,39.109-62.615,39.109-101.674c0-39.06-14.813-74.722-39.109-101.676
		c38.385,17.788,65.088,56.663,65.088,101.676C330.006,263.539,303.303,302.413,264.918,320.2z M330.139,321.036
		c24.746-27.05,39.867-63.046,39.867-102.511c0-39.465-15.121-75.462-39.869-102.513c39.365,17.387,66.914,56.787,66.914,102.513
		C397.051,264.25,369.502,303.65,330.139,321.036z"/>
	<path d="M178.173,204.446c-5.905-2.35-15.77-5.044-29.265-7.996c-5.847-1.305-9.435-2.577-10.666-3.778
		c-1.173-1.146-1.795-2.608-1.795-4.227c0-5.725,6.016-6.926,11.063-6.926c6.266,0,11.091,1.859,14.343,5.525
		c3.261,3.675,8.374,5.097,13.063,3.629l6.464-2.022c4.094-1.282,7.244-4.578,8.338-8.728c1.094-4.149-0.02-8.57-2.952-11.704
		c-6.354-6.797-14.721-11.128-25.439-13.176V140.41c0-6.892-5.587-12.479-12.479-12.479s-12.479,5.587-12.479,12.479v14.367
		c-11.974,2.006-21.061,6.599-27.009,13.679c-6.143,7.313-9.258,15.804-9.258,25.236c0,8.686,2.769,16.157,8.464,22.841
		c5.613,6.589,18.961,12.072,39.683,16.295c5.152,1.047,8.774,2.281,10.763,3.667c1.946,1.357,2.852,3.115,2.852,5.531
		c0,1.667,0,6.738-12.754,6.738c-8.282,0-14.277-2.583-17.819-7.674c-2.802-4.025-7.701-6.038-12.521-5.141l-9.419,1.749
		c-4.111,0.763-7.567,3.535-9.204,7.383c-1.637,3.847-1.238,8.259,1.063,11.751c7.518,11.407,19.352,18.255,35.159,20.397v19.411
		c0,6.892,5.587,12.479,12.479,12.479s12.479-5.587,12.479-12.479v-20.076c10.83-2.015,19.636-6.18,26.217-12.432
		c7.702-7.316,11.607-16.515,11.607-27.339c0-7.729-2.016-14.528-5.983-20.197C189.201,210.919,184.157,206.832,178.173,204.446z"/>
</g>
<g>
</g>
<g>
</g>
<g>
</g>
<g>
</g>
<g>
</g>
<g>
</g>
<g>
</g>
<g>
</g>
<g>
</g>
<g>
</g>
<g>
</g>
<g>
</g>
<g>
</g>
<g>
</g>
<g>
</g>
</svg>
