<?xml version="1.0" encoding="iso-8859-1"?>
<!-- Generator: Adobe Illustrator 18.0.0, SVG Export Plug-In . SVG Version: 6.00 Build 0)  -->
<!DOCTYPE svg PUBLIC "-//W3C//DTD SVG 1.1//EN" "http://www.w3.org/Graphics/SVG/1.1/DTD/svg11.dtd">
<svg version="1.1" id="Capa_1" xmlns="http://www.w3.org/2000/svg" xmlns:xlink="http://www.w3.org/1999/xlink" x="0px" y="0px"
	 viewBox="0 0 351.496 351.496" style="enable-background:new 0 0 351.496 351.496;" xml:space="preserve">
<path d="M350.748,310.832c0-17.635-13.157-32.788-30.608-35.25l-4.302-0.607V153.97l2.196-1.488
	c6.935-4.697,12.135-11.688,14.643-19.68c4.893-15.599-0.839-32.355-14.265-41.695L196.999,6.662C190.731,2.303,183.383,0,175.748,0
	c-7.635,0-14.983,2.303-21.251,6.662L33.084,91.107c-13.423,9.339-19.155,26.094-14.263,41.694
	c2.506,7.993,7.706,14.983,14.641,19.68l2.196,1.489v121.004l-4.302,0.608c-17.45,2.46-30.608,17.614-30.608,35.249v5.057
	c0,19.633,15.973,35.607,35.606,35.607h278.787c19.634,0,35.607-15.974,35.607-35.607V310.832z M195.839,158.889h79.818v116.333
	h-79.818V158.889z M75.839,158.889h79.818v116.333H75.839V158.889z"/>
<g>
</g>
<g>
</g>
<g>
</g>
<g>
</g>
<g>
</g>
<g>
</g>
<g>
</g>
<g>
</g>
<g>
</g>
<g>
</g>
<g>
</g>
<g>
</g>
<g>
</g>
<g>
</g>
<g>
</g>
</svg>
