<?xml version="1.0" encoding="iso-8859-1"?>
<!-- Generator: Adobe Illustrator 18.0.0, SVG Export Plug-In . SVG Version: 6.00 Build 0)  -->
<!DOCTYPE svg PUBLIC "-//W3C//DTD SVG 1.1//EN" "http://www.w3.org/Graphics/SVG/1.1/DTD/svg11.dtd">
<svg version="1.1" id="Capa_1" xmlns="http://www.w3.org/2000/svg" xmlns:xlink="http://www.w3.org/1999/xlink" x="0px" y="0px"
	 viewBox="0 0 390.001 390.001" style="enable-background:new 0 0 390.001 390.001;" xml:space="preserve">
<path d="M381.325,116.956L273.043,8.677C261.477-2.891,242.658-2.892,231.09,8.674L8.677,231.087
	c-11.568,11.568-11.569,30.39-0.001,41.957l108.278,108.28c11.568,11.569,30.392,11.569,41.96,0l222.414-222.414
	C392.894,147.345,392.89,128.525,381.325,116.956z M165.609,330.669c-16.367-11.841-38.754-11.729-55.006,0.341l-51.61-51.61
	c12.068-16.252,12.182-38.639,0.341-55.006l64.144-64.141c-3.104,22.913,8.063,51.885,31.226,75.048
	c23.163,23.164,52.136,34.328,75.05,31.226L165.609,330.669z M234.316,234.579c-3,3.001-7.865,3-10.867-0.001l-8.451-8.452
	c-7.816,5.952-15.951,8.122-24.191,6.429c-2.522-0.518-4.618-2.266-5.58-4.654c-0.963-2.39-0.665-5.101,0.793-7.223l3.341-4.863
	c1.708-2.49,4.717-3.746,7.69-3.214c3.76,0.676,7.493-0.811,11.099-4.417c5.554-5.554,3.346-7.761,2.62-8.487
	c-1.052-1.052-2.211-1.424-3.65-1.167c-1.468,0.261-3.583,1.301-6.283,3.089c-10.861,7.184-19.061,10.609-24.373,10.184
	c-5.39-0.43-9.85-2.478-13.631-6.26c-4.107-4.107-6.449-9.161-6.958-15.02c-0.494-5.671,1.464-11.629,5.804-17.716l-6.255-6.256
	c-3.001-3-3.002-7.866-0.001-10.867c3-3,7.866-3,10.867,0.001l6.371,6.371c5.559-3.777,11.088-5.533,16.815-5.34
	c2.641,0.088,5.051,1.528,6.381,3.81c1.331,2.283,1.395,5.091,0.171,7.43l-1.935,3.695c-1.401,2.681-4.249,4.29-7.27,4.109
	c-3.012-0.181-5.923,1.111-8.65,3.838c-2.198,2.198-4.295,5.341-1.802,7.834c0.705,0.706,1.612,1.07,2.623,1.058
	c1.059-0.013,3.175-1.021,6.289-2.999c7.161-4.591,12.63-7.714,16.225-9.262c3.645-1.565,7.621-1.984,11.82-1.238
	c4.194,0.742,8.032,2.824,11.398,6.189c4.714,4.714,7.02,10.42,6.852,16.958c-0.144,5.587-2.164,11.237-6.003,16.83l8.74,8.741
	C237.316,226.713,237.316,231.579,234.316,234.579z M330.657,165.619l-64.132,64.132c3.103-22.912-8.063-51.884-31.226-75.047
	c-23.164-23.163-52.136-34.329-75.048-31.226l64.131-64.134c16.411,11.956,38.624,11.889,55.01-0.358l51.625,51.624
	C318.768,126.995,318.704,149.209,330.657,165.619z"/>
<g>
</g>
<g>
</g>
<g>
</g>
<g>
</g>
<g>
</g>
<g>
</g>
<g>
</g>
<g>
</g>
<g>
</g>
<g>
</g>
<g>
</g>
<g>
</g>
<g>
</g>
<g>
</g>
<g>
</g>
</svg>
