<?xml version="1.0" encoding="iso-8859-1"?>
<!-- Generator: Adobe Illustrator 18.0.0, SVG Export Plug-In . SVG Version: 6.00 Build 0)  -->
<!DOCTYPE svg PUBLIC "-//W3C//DTD SVG 1.1//EN" "http://www.w3.org/Graphics/SVG/1.1/DTD/svg11.dtd">
<svg version="1.1" id="Capa_1" xmlns="http://www.w3.org/2000/svg" xmlns:xlink="http://www.w3.org/1999/xlink" x="0px" y="0px"
	 viewBox="0 0 380 380" style="enable-background:new 0 0 380 380;" xml:space="preserve">
<path d="M380,190c0-0.319-0.005-0.646-0.012-0.972C379.461,84.708,294.441,0,190,0S0.539,84.708,0.012,189.028
	C0.005,189.354,0,189.681,0,190c0,0.318,0.005,0.645,0.012,0.969C0.537,295.29,85.558,380,190,380
	c104.441,0,189.461-84.708,189.988-189.028C379.995,190.646,380,190.319,380,190z M307.455,219.671
	c-5.083,1.853-10.456,3.566-16.071,5.143c1.099-11.371,1.666-23.013,1.666-34.814c0-11.801-0.567-23.442-1.666-34.813
	c5.615,1.576,10.987,3.289,16.071,5.143c27.856,10.147,40.332,22.205,40.344,29.658c0,0.004,0,0.009,0,0.013s0,0.009,0,0.013
	C347.786,197.467,335.31,209.524,307.455,219.671z M190,347.801c-16.564,0-33.726-15.321-47.082-42.036
	c-5.989-11.976-10.92-25.555-14.714-40.272c19.594,2.604,40.434,3.964,61.796,3.964c21.362,0,42.202-1.359,61.795-3.964
	c-3.794,14.717-8.725,28.296-14.714,40.272C223.725,332.479,206.564,347.801,190,347.801z M190,237.258
	c-23.963,0-47.086-1.806-68.183-5.23c-1.756-13.523-2.668-27.617-2.668-42.027c0-14.41,0.912-28.505,2.668-42.026
	c21.097-3.426,44.22-5.231,68.182-5.231c23.963,0,47.086,1.806,68.183,5.231c1.756,13.521,2.668,27.616,2.668,42.026
	c0,14.41-0.912,28.505-2.668,42.027C237.085,235.452,213.963,237.258,190,237.258z M32.202,190.013c0-0.004,0-0.009,0-0.013
	s0-0.009,0-0.013c0.012-7.453,12.487-19.511,40.344-29.658c5.084-1.854,10.456-3.566,16.071-5.143
	C87.517,166.558,86.95,178.199,86.95,190c0,11.801,0.567,23.442,1.666,34.814c-5.615-1.576-10.986-3.29-16.07-5.143
	C44.689,209.524,32.214,197.466,32.202,190.013z M190,32.199c16.564,0,33.725,15.321,47.082,42.036
	c5.989,11.976,10.92,25.555,14.714,40.271c-19.594-2.604-40.434-3.964-61.796-3.964c-21.362,0-42.201,1.36-61.795,3.964
	c3.794-14.717,8.725-28.296,14.714-40.271C156.274,47.521,173.436,32.199,190,32.199z M339.362,139.068
	c-6.067-3.104-12.992-6.12-20.884-8.994c-9.906-3.61-20.724-6.751-32.249-9.402c-4.605-22.416-11.461-43.067-20.346-60.837
	c-1.995-3.993-4.077-7.788-6.232-11.403C296.841,66.804,325.797,99.397,339.362,139.068z M120.349,48.432
	c-2.155,3.615-4.237,7.41-6.232,11.403c-8.885,17.77-15.742,38.42-20.346,60.837c-11.525,2.651-22.343,5.792-32.249,9.402
	c-7.893,2.874-14.817,5.891-20.884,8.994C54.203,99.397,83.159,66.804,120.349,48.432z M40.638,240.932
	c6.068,3.104,12.992,6.121,20.885,8.995c9.906,3.61,20.724,6.751,32.249,9.401c4.604,22.417,11.461,43.067,20.346,60.837
	c1.995,3.993,4.077,7.788,6.232,11.403C83.16,313.196,54.203,280.603,40.638,240.932z M259.651,331.568
	c2.155-3.615,4.237-7.41,6.232-11.403c8.885-17.77,15.742-38.42,20.346-60.837c11.525-2.65,22.343-5.791,32.248-9.401
	c7.893-2.874,14.817-5.891,20.885-8.995C325.797,280.603,296.84,313.196,259.651,331.568z"/>
<g>
</g>
<g>
</g>
<g>
</g>
<g>
</g>
<g>
</g>
<g>
</g>
<g>
</g>
<g>
</g>
<g>
</g>
<g>
</g>
<g>
</g>
<g>
</g>
<g>
</g>
<g>
</g>
<g>
</g>
</svg>
