<?xml version="1.0" encoding="iso-8859-1"?>
<!-- Generator: Adobe Illustrator 18.0.0, SVG Export Plug-In . SVG Version: 6.00 Build 0)  -->
<!DOCTYPE svg PUBLIC "-//W3C//DTD SVG 1.1//EN" "http://www.w3.org/Graphics/SVG/1.1/DTD/svg11.dtd">
<svg version="1.1" id="Capa_1" xmlns="http://www.w3.org/2000/svg" xmlns:xlink="http://www.w3.org/1999/xlink" x="0px" y="0px"
	 viewBox="0 0 345 345" style="enable-background:new 0 0 345 345;" xml:space="preserve">
<g>
	<path d="M327.5,309.601H35V17.899c0-9.665-7.835-17.5-17.5-17.5C7.835,0.399,0,8.234,0,17.899v309.202
		c0,9.665,7.835,17.5,17.5,17.5h310c9.665,0,17.5-7.835,17.5-17.5C345,317.436,337.165,309.601,327.5,309.601z"/>
	<path d="M75.552,234.954c4.737,0,9.458-1.912,12.91-5.68l48.744-53.222l87.189,38.293c7.5,3.294,16.285,0.944,21.137-5.658
		l53.488-72.763l4.493,31.321c1.252,8.725,8.736,15.019,17.301,15.018c0.827,0,1.665-0.059,2.506-0.18
		c9.567-1.372,16.21-10.24,14.838-19.807l-10.626-74.086c-1.372-9.567-10.243-16.207-19.807-14.838L233.64,83.978
		c-9.567,1.372-16.211,10.24-14.838,19.807c1.372,9.567,10.241,16.211,19.807,14.838l33.19-4.76l-46.163,62.799l-85.832-37.697
		c-6.861-3.013-14.88-1.323-19.942,4.203l-57.21,62.465c-6.528,7.127-6.042,18.197,1.085,24.725
		C67.096,233.435,71.331,234.954,75.552,234.954z"/>
</g>
<g>
</g>
<g>
</g>
<g>
</g>
<g>
</g>
<g>
</g>
<g>
</g>
<g>
</g>
<g>
</g>
<g>
</g>
<g>
</g>
<g>
</g>
<g>
</g>
<g>
</g>
<g>
</g>
<g>
</g>
</svg>
