<?xml version="1.0" encoding="iso-8859-1"?>
<!-- Generator: Adobe Illustrator 18.0.0, SVG Export Plug-In . SVG Version: 6.00 Build 0)  -->
<!DOCTYPE svg PUBLIC "-//W3C//DTD SVG 1.1//EN" "http://www.w3.org/Graphics/SVG/1.1/DTD/svg11.dtd">
<svg version="1.1" id="Capa_1" xmlns="http://www.w3.org/2000/svg" xmlns:xlink="http://www.w3.org/1999/xlink" x="0px" y="0px"
	 viewBox="0 0 380 380" style="enable-background:new 0 0 380 380;" xml:space="preserve">
<path d="M348.175,183.339l-8.432-58.79c-2.729-19.022-19.271-33.368-38.478-33.368c-1.845,0-3.707,0.133-5.536,0.396l-27.306,3.916
	V35.876C268.424,16.096,252.326,0,232.543,0H67.303C47.52,0,31.424,16.096,31.424,35.876v308.248
	C31.424,363.905,47.52,380,67.303,380h165.24c19.783,0,35.881-16.095,35.881-35.876V240.595c0.568-0.671,1.122-1.358,1.646-2.071
	l14.646-19.924c6.813,5.724,15.563,9.15,24.948,9.149c1.853,0,3.722-0.134,5.538-0.396c10.282-1.475,19.375-6.865,25.603-15.178
	C347.032,203.861,349.649,193.621,348.175,183.339z M149.924,356.162c-12.461,0-22.564-10.104-22.564-22.565
	c0-12.462,10.104-22.564,22.564-22.564c12.461,0,22.564,10.102,22.564,22.564C172.488,346.059,162.385,356.162,149.924,356.162z
	 M233.439,295.381H66.408V62.619h167.031v38.063c-19.322,4.594-32.346,23.304-29.473,43.34c0.88,6.13,3.193,11.775,6.568,16.61
	l-34.455-15.132c-4.961-2.18-10.222-3.285-15.636-3.285c-10.88,0-21.334,4.602-28.681,12.624l-45.398,49.569
	c-7.016,7.66-10.628,17.593-10.172,27.971c0.456,10.377,4.926,19.956,12.583,26.968c7.188,6.585,16.516,10.212,26.263,10.212
	c10.879,0,21.332-4.6,28.682-12.623l26.585-29.028l52.797,23.188c3.325,1.461,6.788,2.426,10.337,2.912V295.381z M310.702,202.606
	c-0.668,0.096-1.333,0.143-1.989,0.143c-6.796,0.001-12.735-4.994-13.729-11.917l-3.564-24.855l-42.444,57.74
	c-3.851,5.238-10.819,7.104-16.773,4.49l-69.189-30.387l-38.68,42.233c-2.739,2.99-6.486,4.508-10.245,4.508
	c-3.35,0-6.71-1.205-9.375-3.646c-5.656-5.18-6.042-13.964-0.862-19.62l45.398-49.568c4.016-4.386,10.381-5.727,15.825-3.335
	l68.111,29.914l36.632-49.833l-26.337,3.777c-7.583,1.091-14.628-4.183-15.718-11.774c-1.089-7.592,4.183-14.629,11.774-15.718
	l58.79-8.432c7.589-1.088,14.629,4.183,15.718,11.774l8.432,58.79C323.565,194.48,318.294,201.517,310.702,202.606z"/>
<g>
</g>
<g>
</g>
<g>
</g>
<g>
</g>
<g>
</g>
<g>
</g>
<g>
</g>
<g>
</g>
<g>
</g>
<g>
</g>
<g>
</g>
<g>
</g>
<g>
</g>
<g>
</g>
<g>
</g>
</svg>
