<?xml version="1.0" encoding="iso-8859-1"?>
<!-- Generator: Adobe Illustrator 18.0.0, SVG Export Plug-In . SVG Version: 6.00 Build 0)  -->
<!DOCTYPE svg PUBLIC "-//W3C//DTD SVG 1.1//EN" "http://www.w3.org/Graphics/SVG/1.1/DTD/svg11.dtd">
<svg version="1.1" id="Capa_1" xmlns="http://www.w3.org/2000/svg" xmlns:xlink="http://www.w3.org/1999/xlink" x="0px" y="0px"
	 viewBox="0 0 430 430" style="enable-background:new 0 0 430 430;" xml:space="preserve">
<path d="M417.355,192.955h-7.193l-51.502-79.036h1.088c11.175,0,20.235-9.062,20.235-20.236c0-11.176-9.061-20.235-20.235-20.235
	H235.235v-3.44c0-11.177-9.061-20.236-20.235-20.236c-11.175,0-20.236,9.06-20.236,20.236v3.44H70.252
	c-11.175,0-20.236,9.06-20.236,20.235c0,11.175,9.06,20.236,20.236,20.236h1.087l-51.5,79.036h-7.194
	C5.662,192.955,0,198.617,0,205.6c0,45.143,36.728,81.872,81.872,81.872c45.144,0,81.872-36.73,81.872-81.872
	c0-6.982-5.662-12.645-12.645-12.645h-7.195l-51.501-79.036h102.361v221.582h-46.058c-12.352,0-22.365,10.012-22.365,22.363
	c0,12.352,10.013,22.365,22.365,22.365h132.588c12.352,0,22.364-10.014,22.364-22.365c0-12.352-10.013-22.363-22.364-22.363h-46.059
	V113.919h102.359l-51.499,79.036h-7.193c-6.985,0-12.646,5.662-12.646,12.645c0,45.143,36.727,81.872,81.871,81.872
	c45.144,0,81.872-36.73,81.872-81.872C430,198.617,424.338,192.955,417.355,192.955z M115.026,192.955H48.717l33.154-50.883
	L115.026,192.955z M314.975,192.955l33.153-50.883l33.155,50.883H314.975z"/>
<g>
</g>
<g>
</g>
<g>
</g>
<g>
</g>
<g>
</g>
<g>
</g>
<g>
</g>
<g>
</g>
<g>
</g>
<g>
</g>
<g>
</g>
<g>
</g>
<g>
</g>
<g>
</g>
<g>
</g>
</svg>
