<?xml version="1.0" encoding="iso-8859-1"?>
<!-- Generator: Adobe Illustrator 18.0.0, SVG Export Plug-In . SVG Version: 6.00 Build 0)  -->
<!DOCTYPE svg PUBLIC "-//W3C//DTD SVG 1.1//EN" "http://www.w3.org/Graphics/SVG/1.1/DTD/svg11.dtd">
<svg version="1.1" id="Capa_1" xmlns="http://www.w3.org/2000/svg" xmlns:xlink="http://www.w3.org/1999/xlink" x="0px" y="0px"
	 viewBox="0 0 400 400" style="enable-background:new 0 0 400 400;" xml:space="preserve">
<g>
	<path d="M368.375,79.86h-93.573V57.88c0-16.365-13.315-29.682-29.682-29.682h-90.24c-16.366,0-29.682,13.316-29.682,29.682v21.98
		H31.616C14.184,79.86,0,94.044,0,111.476v75.715h103.065c15.846-37.93,53.326-64.654,96.935-64.654s81.089,26.725,96.935,64.654
		H400v-75.715C400,94.044,385.816,79.86,368.375,79.86z M244.348,79.86h-88.695V58.653h88.695V79.86z"/>
	<path d="M305,227.536c0,57.899-47.103,105-105,105c-57.898,0-105-47.102-105-105c0-4.244,0.26-8.428,0.752-12.541H0v125.182
		c0,17.441,14.184,31.625,31.616,31.625h336.759c17.441,0,31.625-14.184,31.625-31.625V214.995h-95.752
		C304.74,219.108,305,223.292,305,227.536z"/>
	<path d="M200,307.536c44.184,0,80-35.816,80-80s-35.816-80-80-80s-80,35.816-80,80S155.816,307.536,200,307.536z M206.849,240.018
		c-1.381-0.961-3.894-1.821-7.473-2.548c-14.392-2.934-23.66-6.744-27.558-11.313c-3.956-4.646-5.878-9.829-5.878-15.869
		c0-6.546,2.169-12.441,6.433-17.52c4.128-4.917,10.438-8.108,18.751-9.494v-9.977c0-4.792,3.881-8.671,8.668-8.671
		c4.786,0,8.671,3.879,8.671,8.671v10.158c7.438,1.421,13.243,4.423,17.658,9.145c2.036,2.177,2.812,5.246,2.049,8.127
		c-0.76,2.884-2.948,5.173-5.79,6.063l-4.484,1.402c-3.255,1.019-6.805,0.033-9.071-2.52c-2.258-2.542-5.609-3.836-9.961-3.836
		c-3.502,0-7.678,0.836-7.678,4.811c0,1.127,0.428,2.142,1.239,2.936c0.859,0.829,3.351,1.717,7.408,2.625
		c9.371,2.054,16.224,3.923,20.324,5.552c4.154,1.663,7.655,4.496,10.407,8.438c2.759,3.939,4.155,8.658,4.155,14.025
		c0,7.518-2.707,13.908-8.061,18.987c-4.567,4.34-10.677,7.233-18.195,8.631v13.936c0,4.794-3.885,8.671-8.671,8.671
		c-4.787,0-8.668-3.877-8.668-8.671v-13.473c-10.972-1.489-19.192-6.241-24.417-14.162c-1.597-2.428-1.874-5.492-0.736-8.165
		c1.138-2.664,3.54-4.598,6.39-5.125l6.544-1.219c3.347-0.616,6.751,0.777,8.691,3.579c2.463,3.529,6.624,5.325,12.375,5.325
		c8.858,0,8.858-3.52,8.858-4.677C208.829,242.178,208.203,240.959,206.849,240.018z"/>
</g>
<g>
</g>
<g>
</g>
<g>
</g>
<g>
</g>
<g>
</g>
<g>
</g>
<g>
</g>
<g>
</g>
<g>
</g>
<g>
</g>
<g>
</g>
<g>
</g>
<g>
</g>
<g>
</g>
<g>
</g>
</svg>
