<?xml version="1.0" encoding="iso-8859-1"?>
<!-- Generator: Adobe Illustrator 18.0.0, SVG Export Plug-In . SVG Version: 6.00 Build 0)  -->
<!DOCTYPE svg PUBLIC "-//W3C//DTD SVG 1.1//EN" "http://www.w3.org/Graphics/SVG/1.1/DTD/svg11.dtd">
<svg version="1.1" id="Capa_1" xmlns="http://www.w3.org/2000/svg" xmlns:xlink="http://www.w3.org/1999/xlink" x="0px" y="0px"
	 viewBox="0 0 340.756 340.756" style="enable-background:new 0 0 340.756 340.756;" xml:space="preserve">
<g>
	<path d="M335.378,99.869c0-13.82-6.75-26.057-17.129-33.613V41.562C318.249,18.608,299.642,0,276.688,0H46.94
		C23.986,0,5.378,18.608,5.378,41.562v58.308v141.018v58.308c0,22.954,18.608,41.561,41.562,41.561h246.877
		c22.954,0,41.561-18.608,41.561-41.561V237.16h-49.976c-16.688,0-30.217-13.529-30.217-30.217
		c0-16.688,13.529-30.217,30.217-30.217h49.976V99.869z M289.47,58.308H34.157V41.562c0-7.048,5.734-12.783,12.783-12.783h229.748
		c7.05,0,12.782,5.735,12.782,12.783V58.308z"/>
	<circle cx="285.321" cy="206.831" r="19.186"/>
</g>
<g>
</g>
<g>
</g>
<g>
</g>
<g>
</g>
<g>
</g>
<g>
</g>
<g>
</g>
<g>
</g>
<g>
</g>
<g>
</g>
<g>
</g>
<g>
</g>
<g>
</g>
<g>
</g>
<g>
</g>
</svg>
