<?xml version="1.0" encoding="iso-8859-1"?>
<!-- Generator: Adobe Illustrator 18.0.0, SVG Export Plug-In . SVG Version: 6.00 Build 0)  -->
<!DOCTYPE svg PUBLIC "-//W3C//DTD SVG 1.1//EN" "http://www.w3.org/Graphics/SVG/1.1/DTD/svg11.dtd">
<svg version="1.1" id="Capa_1" xmlns="http://www.w3.org/2000/svg" xmlns:xlink="http://www.w3.org/1999/xlink" x="0px" y="0px"
	 viewBox="0 0 350 350" style="enable-background:new 0 0 350 350;" xml:space="preserve">
<g>
	<path d="M288.434,195.217H162.262V64.181c0-6.132-4.968-11.101-11.096-11.101c-81.861,0-148.46,66.599-148.46,148.46
		c0,81.861,66.599,148.46,148.46,148.46c38.754,0,75.425-14.843,103.259-41.799c27.766-26.892,43.784-62.937,45.101-101.507
		c0.102-3.008-1.021-5.927-3.11-8.089C294.324,196.439,291.441,195.217,288.434,195.217z"/>
	<path d="M198.834,0c-6.128,0-11.096,4.968-11.096,11.1v142.136c0,6.131,4.968,11.099,11.096,11.099h137.27
		c5.981,0,10.887-4.741,11.093-10.718c0.066-1.953,0.097-3.591,0.097-5.157C347.294,66.599,280.695,0,198.834,0z"/>
</g>
<g>
</g>
<g>
</g>
<g>
</g>
<g>
</g>
<g>
</g>
<g>
</g>
<g>
</g>
<g>
</g>
<g>
</g>
<g>
</g>
<g>
</g>
<g>
</g>
<g>
</g>
<g>
</g>
<g>
</g>
</svg>
