<?xml version="1.0" encoding="iso-8859-1"?>
<!-- Generator: Adobe Illustrator 18.0.0, SVG Export Plug-In . SVG Version: 6.00 Build 0)  -->
<!DOCTYPE svg PUBLIC "-//W3C//DTD SVG 1.1//EN" "http://www.w3.org/Graphics/SVG/1.1/DTD/svg11.dtd">
<svg version="1.1" id="Capa_1" xmlns="http://www.w3.org/2000/svg" xmlns:xlink="http://www.w3.org/1999/xlink" x="0px" y="0px"
	 viewBox="0 0 365.68 365.68" style="enable-background:new 0 0 365.68 365.68;" xml:space="preserve">
<path d="M288.462,0H77.218C52.709,0,32.84,19.869,32.84,44.378v276.924c0,24.509,19.869,44.378,44.378,44.378h211.244
	c24.509,0,44.378-19.869,44.378-44.378V44.378C332.84,19.869,312.971,0,288.462,0z M76.752,45.621h212.176v70.79H76.752V45.621z
	 M102.959,306.273c-15.335,0-27.767-12.431-27.767-27.765c0-15.333,12.432-27.765,27.767-27.765
	c15.333,0,27.764,12.432,27.764,27.765C130.723,293.842,118.292,306.273,102.959,306.273z M102.959,210.605
	c-15.335,0-27.767-12.432-27.767-27.765s12.432-27.765,27.767-27.765c15.333,0,27.764,12.432,27.764,27.765
	S118.292,210.605,102.959,210.605z M182.84,306.273c-15.335,0-27.764-12.431-27.764-27.765c0-15.333,12.429-27.765,27.764-27.765
	c15.335,0,27.764,12.432,27.764,27.765C210.604,293.842,198.175,306.273,182.84,306.273z M182.84,210.605
	c-15.335,0-27.764-12.432-27.764-27.765s12.429-27.765,27.764-27.765c15.335,0,27.764,12.432,27.764,27.765
	S198.175,210.605,182.84,210.605z M262.721,306.273c-15.333,0-27.764-12.431-27.764-27.765c0-15.333,12.431-27.765,27.764-27.765
	c15.335,0,27.767,12.432,27.767,27.765C290.487,293.842,278.056,306.273,262.721,306.273z M262.721,210.605
	c-15.333,0-27.764-12.432-27.764-27.765s12.431-27.765,27.764-27.765c15.335,0,27.767,12.432,27.767,27.765
	S278.056,210.605,262.721,210.605z"/>
<g>
</g>
<g>
</g>
<g>
</g>
<g>
</g>
<g>
</g>
<g>
</g>
<g>
</g>
<g>
</g>
<g>
</g>
<g>
</g>
<g>
</g>
<g>
</g>
<g>
</g>
<g>
</g>
<g>
</g>
</svg>
