<?xml version="1.0" encoding="iso-8859-1"?>
<!-- Generator: Adobe Illustrator 18.0.0, SVG Export Plug-In . SVG Version: 6.00 Build 0)  -->
<!DOCTYPE svg PUBLIC "-//W3C//DTD SVG 1.1//EN" "http://www.w3.org/Graphics/SVG/1.1/DTD/svg11.dtd">
<svg version="1.1" id="Capa_1" xmlns="http://www.w3.org/2000/svg" xmlns:xlink="http://www.w3.org/1999/xlink" x="0px" y="0px"
	 viewBox="0 0 360 360" style="enable-background:new 0 0 360 360;" xml:space="preserve">
<path d="M348.784,163.593c-12.468-12.469-31.391-14.533-46.007-6.212L202.619,57.224c8.32-14.616,6.257-33.539-6.212-46.007
	c-14.955-14.955-39.203-14.955-54.159,0L60.121,93.344c-14.956,14.956-14.956,39.204,0,54.159
	c12.468,12.47,31.391,14.533,46.007,6.213l18.821,18.82L12.926,284.56c-17.235,17.235-17.235,45.279,0,62.514
	c17.235,17.235,45.278,17.235,62.514,0L187.464,235.05l18.82,18.821c-8.32,14.617-6.257,33.54,6.213,46.008
	c14.956,14.955,39.203,14.955,54.158,0l82.128-82.128C363.739,202.795,363.739,178.547,348.784,163.593z M51.997,323.631
	c-4.309,4.309-11.319,4.309-15.628,0c-4.309-4.309-4.309-11.319,0-15.628l112.024-112.024l15.628,15.628L51.997,323.631z"/>
<g>
</g>
<g>
</g>
<g>
</g>
<g>
</g>
<g>
</g>
<g>
</g>
<g>
</g>
<g>
</g>
<g>
</g>
<g>
</g>
<g>
</g>
<g>
</g>
<g>
</g>
<g>
</g>
<g>
</g>
</svg>
